<?xml version="1.0" encoding="iso-8859-1"?>
<!-- Generator: Adobe Illustrator 19.0.0, SVG Export Plug-In . SVG Version: 6.00 Build 0)  -->
<svg version="1.1" id="Capa_1" xmlns="http://www.w3.org/2000/svg" xmlns:xlink="http://www.w3.org/1999/xlink" x="0px" y="0px"
	 viewBox="0 0 468.293 468.293" style="enable-background:new 0 0 468.293 468.293;" xml:space="preserve">
<path style="fill:#64798A;" d="M435.856,353.78H32.438V89.639c0-6.897,5.591-12.488,12.488-12.488h378.442
	c6.897,0,12.488,5.591,12.488,12.488V353.78z"/>
<rect x="49.751" y="94.439" style="fill:#EBF0F3;" width="368.827" height="242.051"/>
<path style="fill:#3A556A;" d="M18.732,352.618h430.829c10.345,0,18.732,8.386,18.732,18.732v1.06
	c0,10.345-8.386,18.732-18.732,18.732H18.732C8.386,391.142,0,382.755,0,372.41v-1.06C0,361.005,8.386,352.618,18.732,352.618z"/>
<path style="fill:#EBF0F3;" d="M262.962,366.117h-57.631c-3.183,0-5.763,2.578-5.763,5.763s2.58,5.763,5.763,5.763h57.631
	c3.183,0,5.763-2.578,5.763-5.763S266.145,366.117,262.962,366.117z"/>
<rect x="71.805" y="112.44" style="fill:#44C4A1;" width="95.707" height="84.611"/>
<rect x="186.318" y="112.44" style="fill:#27A2DB;" width="95.707" height="84.611"/>
<rect x="300.781" y="112.44" style="fill:#FCD462;" width="95.707" height="84.611"/>
<g>
	<rect x="71.805" y="213.61" style="fill:#D5D6DB;" width="324.683" height="44.144"/>
	<rect x="71.805" y="274.357" style="fill:#D5D6DB;" width="324.683" height="44.144"/>
</g>
<g>
</g>
<g>
</g>
<g>
</g>
<g>
</g>
<g>
</g>
<g>
</g>
<g>
</g>
<g>
</g>
<g>
</g>
<g>
</g>
<g>
</g>
<g>
</g>
<g>
</g>
<g>
</g>
<g>
</g>
</svg>
