<?xml version="1.0" encoding="iso-8859-1"?>
<!-- Generator: Adobe Illustrator 19.0.0, SVG Export Plug-In . SVG Version: 6.00 Build 0)  -->
<svg xmlns="http://www.w3.org/2000/svg" xmlns:xlink="http://www.w3.org/1999/xlink" version="1.1" id="Capa_1" x="0px" y="0px" viewBox="0 0 512.007 512.007" style="enable-background:new 0 0 512.007 512.007;" xml:space="preserve">
<circle style="fill:#F7F7F7;" cx="256.003" cy="256.003" r="256.003"/>
<path style="fill:#E2E1E4;" d="M282.949,135.119c-37.737,0-70.749,20.191-88.848,50.352c-6.785-2.812-14.222-4.372-22.024-4.371  c-29.698,0-54.136,22.485-57.238,51.357c-27.192,11.284-46.32,38.082-46.32,69.356c0,22.73,10.117,43.085,26.077,56.852l-0.16,0.16  l153.02,153.02c2.838,0.093,5.684,0.157,8.546,0.157c121.241,0,222.788-84.285,249.266-197.454L351.362,160.641l-0.166,0.166  C332.97,144.819,309.096,135.119,282.949,135.119z"/>
<path style="fill:#73A8DB;" d="M386.35,233.063c-2.916-54.582-48.092-97.944-103.401-97.944c-37.737,0-70.749,20.191-88.848,50.352  c-6.785-2.812-14.222-4.371-22.024-4.371c-29.698,0-54.136,22.485-57.238,51.357c-27.192,11.284-46.32,38.082-46.32,69.356  c0,41.459,33.61,75.07,75.07,75.07h227.134c40.184,0,72.76-32.575,72.76-72.76C443.481,269.305,419.02,240.217,386.35,233.063z"/>
<g>
</g>
<g>
</g>
<g>
</g>
<g>
</g>
<g>
</g>
<g>
</g>
<g>
</g>
<g>
</g>
<g>
</g>
<g>
</g>
<g>
</g>
<g>
</g>
<g>
</g>
<g>
</g>
<g>
</g>
</svg>
