<?xml version="1.0" encoding="iso-8859-1"?>
<!-- Generator: Adobe Illustrator 19.0.0, SVG Export Plug-In . SVG Version: 6.00 Build 0)  -->
<svg xmlns="http://www.w3.org/2000/svg" xmlns:xlink="http://www.w3.org/1999/xlink" version="1.1" id="Capa_1" x="0px" y="0px" viewBox="0 0 512 512" style="enable-background:new 0 0 512 512;" xml:space="preserve">
<circle style="fill:#2D2E30;" cx="255.997" cy="256" r="255.997"/>
<g>
	<path style="fill:#1D1D1F;" d="M510.983,233.27L392.874,115.16l-32.424,7.934l12.245,12.245l13.338,13.338l125.328,125.328   c0.413-5.948,0.639-11.948,0.639-18.002C512,248.341,511.643,240.762,510.983,233.27z"/>
	<path style="fill:#1D1D1F;" d="M358.161,147.484l-1.085,1.085l-13.793-13.794l-2.735-1.987l-2.718,3.742l-13.965-13.965   l-3.013-1.534l-3.573,7.015l-14.503-14.503l-3.215-1.044l-3.546,10.914l-15.48-15.48l-3.338-0.53l-2.458,15.514l-9.445-9.445   l-7.604-7.604h-3.38v18.589l0.742,0.741c-0.809,0.006-1.617,0.012-2.422,0.032l-8.598-8.597l-9.229-9.229l-3.338,0.53l2.908,18.358   l0.613,0.614c-2.298,0.378-4.574,0.816-6.83,1.314l-15.719-15.719l-3.215,1.044l5.744,17.678l0.493,0.494   c-3.359,1.115-6.658,2.363-9.889,3.743l-2.665-2.666l-11.761-11.761l-3.013,1.534l8.439,16.561l0.392,0.392   c-4.076,2.111-8.022,4.437-11.828,6.957l-13.686-13.686l-2.735,1.987l10.926,15.038l0.292,0.292   c-4.484,3.297-8.749,6.873-12.764,10.712l-0.19-0.19l-9.932-9.932l-3.211-3.211l-2.389,2.389l3.211,3.211l9.932,9.932l0.17,0.17   c-3.907,3.937-7.557,8.128-10.932,12.542l-0.052-0.052l-15.038-10.925l-1.987,2.734l12.608,12.608l0.751,0.751   c-2.59,3.756-4.992,7.652-7.179,11.683l-16.404-8.358l-1.534,3.013l11.761,11.761l2.004,2.004c-1.46,3.238-2.783,6.551-3.975,9.926   l-17.278-5.614l-1.044,3.215l10.626,10.626l4.041,4.041c-0.577,2.363-1.091,4.751-1.536,7.164l-17.699-2.803l-0.529,3.339   l9.229,9.229l7.032,7.032c-0.054,1.078-0.095,2.16-0.124,3.245h-17.672v3.38l17.049,17.05l-15.514,2.458l0.529,3.339l15.48,15.48   l-10.913,3.546l1.044,3.215l14.503,14.503l-7.015,3.573l1.534,3.013l13.965,13.965l-3.742,2.718l1.987,2.734l13.793,13.793   l-1.086,1.086l2.389,2.39l150.786,150.786c104.619-20.119,186.567-103.912,203.945-209.48L360.551,149.873L358.161,147.484z"/>
</g>
<g>
	<rect x="254.312" y="105.868" style="fill:#8A8A91;" width="3.38" height="18.589"/>
	<rect x="254.312" y="379.613" style="fill:#8A8A91;" width="3.38" height="18.589"/>
	
		<rect x="232.885" y="107.551" transform="matrix(-0.9876 0.1567 -0.1567 -0.9876 484.5625 195.4848)" style="fill:#8A8A91;" width="3.38" height="18.587"/>
	
		<rect x="275.71" y="377.914" transform="matrix(-0.9876 0.1567 -0.1567 -0.9876 612.051 726.162)" style="fill:#8A8A91;" width="3.38" height="18.588"/>
</g>
<g>
	
		<rect x="212.018" y="112.578" transform="matrix(-0.9511 0.3089 -0.3089 -0.9511 454.6105 171.7698)" style="fill:#FFFFFF;" width="3.38" height="18.588"/>
	
		<rect x="296.596" y="372.93" transform="matrix(-0.9511 0.3089 -0.3089 -0.9511 700.0529 653.6154)" style="fill:#FFFFFF;" width="3.38" height="18.588"/>
</g>
<g>
	
		<rect x="192.17" y="120.794" transform="matrix(-0.8911 0.4538 -0.4538 -0.8911 425.6428 158.0346)" style="fill:#8A8A91;" width="3.38" height="18.588"/>
	
		<rect x="316.438" y="364.724" transform="matrix(-0.8911 0.4538 -0.4538 -0.8911 771.3434 562.9396)" style="fill:#8A8A91;" width="3.38" height="18.587"/>
	
		<rect x="173.852" y="131.998" transform="matrix(-0.8089 0.5879 -0.5879 -0.8089 400.6088 152.3818)" style="fill:#8A8A91;" width="3.38" height="18.587"/>
	
		<rect x="334.749" y="353.455" transform="matrix(-0.8089 0.5879 -0.5879 -0.8089 821.8577 458.3861)" style="fill:#8A8A91;" width="3.38" height="18.587"/>
</g>
<g>
	
		<rect x="157.521" y="145.952" transform="matrix(-0.7071 0.7071 -0.7071 -0.7071 381.5639 152.4419)" style="fill:#FFFFFF;" width="3.379" height="18.587"/>
	
		<rect x="351.094" y="339.527" transform="matrix(-0.7071 0.7071 -0.7071 -0.7071 848.8936 346.0193)" style="fill:#FFFFFF;" width="3.379" height="18.588"/>
</g>
<g>
	
		<rect x="135.967" y="169.889" transform="matrix(-0.809 -0.5878 0.5878 -0.809 161.9233 395.772)" style="fill:#8A8A91;" width="18.587" height="3.38"/>
	
		<rect x="357.451" y="330.797" transform="matrix(-0.809 -0.5878 0.5878 -0.809 468.0055 817.0439)" style="fill:#8A8A91;" width="18.587" height="3.38"/>
	
		<rect x="124.741" y="188.21" transform="matrix(-0.891 -0.454 0.454 -0.891 167.2448 419.9524)" style="fill:#8A8A91;" width="18.588" height="3.38"/>
	
		<rect x="368.663" y="312.483" transform="matrix(-0.891 -0.454 0.454 -0.891 572.0818 765.6947)" style="fill:#8A8A91;" width="18.588" height="3.38"/>
</g>
<g>
	
		<rect x="116.54" y="208.053" transform="matrix(-0.9511 -0.309 0.309 -0.9511 180.7027 448.1036)" style="fill:#FFFFFF;" width="18.588" height="3.38"/>
	
		<rect x="376.903" y="292.639" transform="matrix(-0.9511 -0.309 0.309 -0.9511 662.5518 693.5866)" style="fill:#FFFFFF;" width="18.588" height="3.38"/>
</g>
<g>
	
		<rect x="111.52" y="228.936" transform="matrix(-0.9877 -0.1564 0.1564 -0.9877 204.0706 477.3086)" style="fill:#8A8A91;" width="18.588" height="3.38"/>
	
		<rect x="381.899" y="271.76" transform="matrix(-0.9877 -0.1565 0.1565 -0.9877 734.7725 604.7523)" style="fill:#8A8A91;" width="18.588" height="3.38"/>
	<rect x="109.829" y="250.342" style="fill:#8A8A91;" width="18.589" height="3.38"/>
	<rect x="383.584" y="250.342" style="fill:#8A8A91;" width="18.589" height="3.38"/>
	
		<rect x="111.517" y="271.763" transform="matrix(-0.9877 0.1565 -0.1565 -0.9877 282.9273 524.6297)" style="fill:#8A8A91;" width="18.588" height="3.38"/>
	
		<rect x="381.898" y="228.944" transform="matrix(-0.9877 0.1564 -0.1564 -0.9877 813.6398 397.2478)" style="fill:#8A8A91;" width="18.588" height="3.38"/>
</g>
<g>
	
		<rect x="116.523" y="292.652" transform="matrix(-0.9511 0.309 -0.309 -0.9511 336.4268 535.4047)" style="fill:#FFFFFF;" width="18.588" height="3.38"/>
	
		<rect x="376.896" y="208.061" transform="matrix(-0.9511 0.309 -0.309 -0.9511 818.2936 289.909)" style="fill:#FFFFFF;" width="18.588" height="3.38"/>
</g>
<g>
	
		<rect x="124.753" y="312.486" transform="matrix(-0.891 0.454 -0.454 -0.891 396.1184 533.2509)" style="fill:#8A8A91;" width="18.588" height="3.38"/>
	
		<rect x="368.665" y="188.186" transform="matrix(-0.891 0.454 -0.454 -0.891 800.9246 187.4625)" style="fill:#8A8A91;" width="18.588" height="3.38"/>
	
		<rect x="135.968" y="330.8" transform="matrix(-0.809 0.5878 -0.5878 -0.809 458.2183 516.0905)" style="fill:#8A8A91;" width="18.587" height="3.38"/>
	
		<rect x="357.442" y="169.882" transform="matrix(-0.809 0.5878 -0.5878 -0.809 764.2767 94.8064)" style="fill:#8A8A91;" width="18.587" height="3.38"/>
</g>
<g>
	
		<rect x="149.919" y="347.131" transform="matrix(-0.7071 0.7071 -0.7071 -0.7071 518.4477 482.893)" style="fill:#FFFFFF;" width="18.588" height="3.379"/>
	
		<rect x="343.489" y="153.57" transform="matrix(-0.7071 0.7071 -0.7071 -0.7071 712.0228 15.5897)" style="fill:#FFFFFF;" width="18.587" height="3.379"/>
</g>
<g>
	
		<rect x="173.841" y="353.46" transform="matrix(-0.8089 -0.5879 0.5879 -0.8089 104.2539 759.3906)" style="fill:#8A8A91;" width="3.38" height="18.587"/>
	
		<rect x="334.74" y="132.003" transform="matrix(-0.8089 -0.5879 0.5879 -0.8089 525.5045 453.3868)" style="fill:#8A8A91;" width="3.38" height="18.587"/>
	
		<rect x="192.181" y="364.696" transform="matrix(-0.8911 -0.4538 0.4538 -0.8911 196.9132 795.2328)" style="fill:#8A8A91;" width="3.38" height="18.587"/>
	
		<rect x="316.46" y="120.775" transform="matrix(-0.8911 -0.4538 0.4538 -0.8911 542.6285 390.3492)" style="fill:#8A8A91;" width="3.38" height="18.588"/>
</g>
<g>
	
		<rect x="212.033" y="372.915" transform="matrix(-0.9511 -0.3089 0.3089 -0.9511 298.9294 811.7444)" style="fill:#FFFFFF;" width="3.38" height="18.588"/>
	
		<rect x="296.614" y="112.56" transform="matrix(-0.9511 -0.3089 0.3089 -0.9511 544.3785 329.8939)" style="fill:#FFFFFF;" width="3.38" height="18.588"/>
</g>
<g>
	
		<rect x="232.891" y="377.909" transform="matrix(-0.9876 -0.1567 0.1567 -0.9876 405.5873 806.3821)" style="fill:#8A8A91;" width="3.38" height="18.588"/>
	
		<rect x="275.715" y="107.549" transform="matrix(-0.9876 -0.1567 0.1567 -0.9876 533.0732 275.7126)" style="fill:#8A8A91;" width="3.38" height="18.587"/>
</g>
<circle style="fill:#3E3E42;" cx="255.997" cy="252.036" r="59.354"/>
<g>
	<path style="fill:#FFFFFF;" d="M258.534,192.744c-0.841-0.036-1.685-0.064-2.535-0.064s-1.694,0.029-2.535,0.064v57.918H196.68   c-0.01,0.458-0.035,0.912-0.035,1.372c0,1.243,0.051,2.473,0.126,3.697h56.693v55.593c0.841,0.036,1.685,0.064,2.535,0.064   s1.694-0.029,2.535-0.064v-55.593h56.693c0.075-1.224,0.126-2.455,0.126-3.697c0-0.46-0.025-0.915-0.035-1.372h-56.784V192.744z"/>
	<path style="fill:#FFFFFF;" d="M214.156,167.674l-8.992,28.959l-4.866-0.001l-6.329-19.787c-0.173-0.48-0.334-1.067-0.48-1.762   c-0.08,0.334-0.161,0.648-0.242,0.942c-0.079,0.293-0.166,0.567-0.26,0.82l-6.388,19.787l-4.886-0.001l-8.971-28.958h4.505   c0.468,0,0.857,0.11,1.171,0.331c0.313,0.22,0.524,0.517,0.631,0.891l4.926,17.323c0.106,0.428,0.21,0.892,0.31,1.391   c0.1,0.502,0.204,1.025,0.311,1.573c0.107-0.561,0.224-1.087,0.351-1.583c0.127-0.494,0.265-0.954,0.41-1.382l5.688-17.322   c0.105-0.306,0.317-0.587,0.631-0.84c0.313-0.253,0.697-0.382,1.151-0.382h1.583c0.468,0,0.848,0.115,1.142,0.341   c0.294,0.227,0.514,0.52,0.661,0.881l5.668,17.323c0.279,0.827,0.533,1.783,0.761,2.863c0.173-1.053,0.368-2.009,0.581-2.863   l4.928-17.323c0.079-0.334,0.282-0.621,0.609-0.861c0.328-0.24,0.717-0.362,1.173-0.362h4.221V167.674z"/>
	<path style="fill:#FFFFFF;" d="M337.546,170.209l-0.001,28.959h-2.763c-0.428,0-0.785-0.069-1.071-0.211   c-0.287-0.14-0.564-0.377-0.83-0.711l-15.12-19.305c0.079,0.881,0.119,1.696,0.12,2.444l-0.001,17.783h-4.745V170.21l2.824-0.001   c0.227-0.001,0.423,0.011,0.59,0.03c0.166,0.021,0.314,0.06,0.44,0.121c0.127,0.06,0.251,0.147,0.371,0.26   c0.121,0.114,0.254,0.264,0.401,0.45l15.181,19.386c-0.041-0.468-0.074-0.928-0.1-1.382c-0.028-0.453-0.041-0.875-0.041-1.261   v-17.605L337.546,170.209z"/>
	<path style="fill:#FFFFFF;" d="M200.978,308.796c-0.16,0.279-0.331,0.484-0.511,0.611c-0.18,0.127-0.402,0.19-0.671,0.19   c-0.28,0-0.583-0.104-0.91-0.311c-0.328-0.207-0.718-0.437-1.172-0.691c-0.454-0.254-0.985-0.485-1.591-0.691   c-0.608-0.207-1.326-0.311-2.153-0.311c-0.748,0.001-1.401,0.09-1.962,0.271c-0.561,0.18-1.032,0.431-1.411,0.751   c-0.381,0.32-0.665,0.705-0.851,1.152c-0.188,0.447-0.28,0.937-0.28,1.472c-0.001,0.68,0.19,1.25,0.571,1.702   c0.381,0.453,0.884,0.841,1.511,1.161c0.628,0.32,1.342,0.607,2.143,0.861c0.802,0.254,1.622,0.525,2.463,0.813   c0.841,0.286,1.662,0.619,2.464,1.001c0.801,0.381,1.515,0.861,2.143,1.441c0.628,0.582,1.131,1.292,1.511,2.133   c0.381,0.841,0.572,1.863,0.572,3.065c0,1.308-0.224,2.533-0.672,3.675c-0.446,1.142-1.101,2.136-1.962,2.984   c-0.859,0.848-1.912,1.515-3.154,2.003c-1.241,0.487-2.664,0.73-4.266,0.73c-0.921,0-1.829-0.089-2.723-0.271   c-0.897-0.18-1.752-0.437-2.574-0.771c-0.822-0.334-1.59-0.734-2.313-1.202c-0.72-0.466-1.363-0.987-1.923-1.562l1.584-2.582   c0.132-0.187,0.306-0.345,0.52-0.471c0.212-0.127,0.441-0.19,0.68-0.19c0.334,0,0.696,0.137,1.082,0.409   c0.386,0.275,0.847,0.579,1.381,0.913c0.533,0.335,1.157,0.638,1.873,0.911c0.714,0.273,1.571,0.41,2.573,0.41   c1.536,0,2.723-0.363,3.566-1.091c0.841-0.727,1.261-1.773,1.261-3.134c0.001-0.76-0.191-1.381-0.572-1.863   c-0.381-0.479-0.884-0.883-1.512-1.211c-0.627-0.326-1.341-0.603-2.141-0.83c-0.802-0.227-1.616-0.474-2.443-0.74   c-0.828-0.268-1.643-0.588-2.445-0.961c-0.801-0.374-1.515-0.861-2.142-1.463s-1.131-1.352-1.511-2.253   c-0.382-0.901-0.571-2.012-0.571-3.334c0-1.053,0.21-2.084,0.631-3.085c0.42-1.002,1.031-1.889,1.832-2.664   c0.801-0.775,1.789-1.394,2.964-1.862c1.175-0.468,2.523-0.702,4.045-0.702c1.709,0,3.285,0.267,4.727,0.802   c1.443,0.534,2.67,1.281,3.685,2.244L200.978,308.796z"/>
	<path style="fill:#FFFFFF;" d="M322.456,309.081v8.031h10.133v4.145h-10.133v8.191h12.858v4.306h-18.266l0.001-28.959h18.264   l0.001,4.286L322.456,309.081L322.456,309.081z"/>
</g>
<polygon style="fill:#E25F3F;" points="386.032,148.678 360.448,123.093 392.874,115.16 "/>
<g>
</g>
<g>
</g>
<g>
</g>
<g>
</g>
<g>
</g>
<g>
</g>
<g>
</g>
<g>
</g>
<g>
</g>
<g>
</g>
<g>
</g>
<g>
</g>
<g>
</g>
<g>
</g>
<g>
</g>
</svg>
