<?xml version="1.0" encoding="iso-8859-1"?>
<!-- Generator: Adobe Illustrator 19.0.0, SVG Export Plug-In . SVG Version: 6.00 Build 0)  -->
<svg xmlns="http://www.w3.org/2000/svg" xmlns:xlink="http://www.w3.org/1999/xlink" version="1.1" id="Capa_1" x="0px" y="0px" viewBox="0 0 512.007 512.007" style="enable-background:new 0 0 512.007 512.007;" xml:space="preserve">
<circle style="fill:#F7F7F7;" cx="256.003" cy="256.003" r="256.003"/>
<path style="fill:#D9D8DB;" d="M392.833,114.086l-0.06,0.06c-13.635-12.42-31.761-19.995-51.658-19.995  c-20.991,0-149.201,0-170.229,0c-42.379,0-76.734,34.355-76.734,76.734c0,20.899,0,149.185,0,170.229  c0,21.25,8.694,41.615,24.758,56.421l113.36,113.36c7.816,0.719,15.728,1.105,23.731,1.105c141.385,0,256-114.615,256.001-256  c0-8.049-0.39-16.005-1.117-23.864C459.952,181.206,397.324,118.577,392.833,114.086z"/>
<path style="fill:#C6C5CA;" d="M341.114,417.848H170.886c-42.379,0-76.734-34.355-76.734-76.734V170.886  c0-42.379,34.355-76.734,76.734-76.734h170.229c42.379,0,76.734,34.355,76.734,76.734v170.229  C417.848,383.493,383.493,417.848,341.114,417.848z"/>
<g>
	<path style="fill:#DF871E;" d="M94.152,341.114c0,42.379,34.355,76.734,76.734,76.734H256V256H94.152V341.114z"/>
	<path style="fill:#DF871E;" d="M256,256V94.152h-85.114c-42.379,0-76.734,34.355-76.734,76.734V256H256z"/>
	<path style="fill:#DF871E;" d="M341.114,94.152H256V256h161.849v-85.115C417.848,128.507,383.493,94.152,341.114,94.152z"/>
</g>
<polygon style="fill:#57565C;" points="417.848,253.536 258.464,253.536 258.464,94.152 253.535,94.152 253.535,253.536   94.152,253.536 94.152,258.465 253.535,258.465 253.535,417.848 258.464,417.848 258.464,258.465 417.848,258.465 "/>
<g>
	<rect x="141.661" y="170.725" style="fill:#FFFFFF;" width="70.983" height="6.901"/>
	<rect x="303.345" y="170.725" style="fill:#FFFFFF;" width="70.983" height="6.901"/>
</g>
<g>
	<rect x="303.345" y="315.649" style="fill:#57565C;" width="70.983" height="6.901"/>
	<rect x="303.345" y="344.24" style="fill:#57565C;" width="70.983" height="6.901"/>
</g>
<g>
	<rect x="173.702" y="138.684" style="fill:#FFFFFF;" width="6.901" height="70.983"/>
	
		<rect x="173.701" y="299.379" transform="matrix(-0.7071 -0.7071 0.7071 -0.7071 65.6261 696.9232)" style="fill:#FFFFFF;" width="6.9" height="70.983"/>
	
		<rect x="141.66" y="331.421" transform="matrix(-0.7071 -0.7071 0.7071 -0.7071 65.6266 696.9254)" style="fill:#FFFFFF;" width="70.983" height="6.9"/>
</g>
<g>
</g>
<g>
</g>
<g>
</g>
<g>
</g>
<g>
</g>
<g>
</g>
<g>
</g>
<g>
</g>
<g>
</g>
<g>
</g>
<g>
</g>
<g>
</g>
<g>
</g>
<g>
</g>
<g>
</g>
</svg>
