<?xml version="1.0" encoding="iso-8859-1"?>
<!-- Generator: Adobe Illustrator 19.0.0, SVG Export Plug-In . SVG Version: 6.00 Build 0)  -->
<svg xmlns="http://www.w3.org/2000/svg" xmlns:xlink="http://www.w3.org/1999/xlink" version="1.1" id="Capa_1" x="0px" y="0px" viewBox="0 0 512 512" style="enable-background:new 0 0 512 512;" xml:space="preserve">
<circle style="fill:#F7F7F7;" cx="256" cy="256" r="256"/>
<path style="fill:#E2E1E4;" d="M398.875,120.484c-11.009-12.61-26.096-21.569-43.218-24.791v0.08  c-4.744-0.92-9.639-1.416-14.651-1.416H170.995c-42.325,0-76.636,34.311-76.636,76.636v170.011c0,12.808,3.159,24.872,8.714,35.484  l-0.149,0.083c3.614,6.946,8.268,13.265,13.751,18.753l-0.003,0.003l115.565,115.565C240.064,511.613,247.986,512,256,512  c141.385,0,256-114.615,256-256c0-7.914-0.379-15.74-1.081-23.471L398.875,120.484z"/>
<path style="fill:#C6C5CA;" d="M417.641,341.005c0,42.325-34.311,76.636-76.636,76.636H170.212  c-41.893,0-75.854-33.961-75.854-75.854V170.995c0-42.325,34.311-76.636,76.636-76.636h170.011  c42.325,0,76.636,34.311,76.636,76.636L417.641,341.005L417.641,341.005z"/>
<path style="fill:#8A8A91;" d="M396.419,394.206l-41.686-23.194c-13.061-7.267-27.761-11.082-42.709-11.082  c-17.945,0-32.912-13.716-34.476-31.591l-1.446-16.538l1.479-1.199c6.168-5.001,9.952-12.36,10.433-20.286l1.383-22.829l0.309-0.927  c0.939,0.999,2.017,1.613,3.2,1.704c4.414,0.34,8.543-6.542,9.22-15.369c0-0.001,0-0.002,0-0.003  c0.21-2.739,1.047-5.413,2.423-7.791c0.992-1.713,1.868-3.671,2.558-5.802c2.728-8.422,1.525-16.356-2.686-17.72  c-1.375-0.445-2.9-0.124-4.427,0.789l0.746-7.089c3.868-7.511,6.288-18.205,6.288-30.081c0-22.724-8.852-41.145-19.771-41.145  c-1.074,0-2.128,0.185-3.156,0.528c-14.38-23.485-50.279-23.505-50.279-23.505s-35.899,0.02-50.279,23.505  c-1.028-0.344-2.081-0.528-3.156-0.528c-10.918,0-19.771,18.421-19.771,41.145c0,11.876,2.421,22.57,6.288,30.081l0.746,7.089  c-1.526-0.913-3.051-1.234-4.427-0.789c-4.211,1.364-5.413,9.298-2.686,17.72c0.69,2.132,1.567,4.089,2.558,5.802  c1.376,2.378,2.212,5.052,2.423,7.791c0,0.001,0,0.002,0,0.003c0.678,8.827,4.807,15.709,9.22,15.369  c1.183-0.091,2.261-0.704,3.2-1.704l0.309,0.927l1.383,22.829c0.48,7.925,4.265,15.285,10.433,20.286l1.479,1.199l-1.446,16.538  c-1.565,17.876-16.532,31.591-34.476,31.591c-14.947,0-29.647,3.814-42.709,11.082l-9.991,5.559  C115.61,400.968,141.1,417.64,170.5,417.64h170.992C363.086,417.641,382.561,408.641,396.419,394.206z"/>
<path style="fill:#ACACB2;" d="M355.657,95.695v320.611c35.284-6.639,61.984-37.598,61.984-74.81V170.504  C417.64,133.291,390.941,102.333,355.657,95.695z"/>
<rect x="355.653" y="176.65" style="fill:#5F98D1;" width="61.984" height="78.818"/>
<rect x="355.653" y="256" style="fill:#53A760;" width="61.984" height="78.818"/>
<path style="fill:#DF871E;" d="M355.657,416.306c35.284-6.639,61.984-37.598,61.984-74.81v-6.68h-61.984V416.306z"/>
<path d="M392.901,149.665H390.9c-0.225-0.001-0.408-0.055-0.548-0.169c-0.142-0.111-0.246-0.251-0.317-0.417l-1.039-2.837  l-5.762-0.001l-1.039,2.838c-0.051,0.149-0.151,0.283-0.297,0.404c-0.149,0.122-0.331,0.182-0.548,0.182l-2.02,0.001l5.473-13.908  h2.636L392.901,149.665z M388.332,144.414l-1.693-4.628c-0.083-0.206-0.168-0.449-0.26-0.731c-0.09-0.283-0.179-0.588-0.269-0.914  c-0.085,0.326-0.17,0.633-0.26,0.918c-0.09,0.286-0.175,0.535-0.26,0.746l-1.684,4.607L388.332,144.414L388.332,144.414z"/>
<path d="M385.773,210.299c0.911-0.001,1.691,0.086,2.337,0.26c0.647,0.172,1.178,0.418,1.591,0.739  c0.414,0.321,0.717,0.709,0.91,1.163c0.192,0.456,0.288,0.968,0.288,1.539c0,0.328-0.047,0.64-0.144,0.938  c-0.096,0.297-0.245,0.577-0.447,0.836c-0.203,0.26-0.458,0.496-0.77,0.707c-0.31,0.212-0.68,0.391-1.111,0.54  c1.91,0.428,2.866,1.46,2.866,3.097c0,0.589-0.112,1.135-0.336,1.634c-0.225,0.5-0.552,0.932-0.982,1.295  c-0.429,0.361-0.959,0.646-1.587,0.85c-0.629,0.206-1.348,0.308-2.155,0.308h-5.252v-13.909L385.773,210.299z M386.187,222.186  c0.48-0.001,0.885-0.058,1.213-0.174c0.326-0.115,0.588-0.269,0.783-0.463c0.195-0.191,0.337-0.416,0.423-0.673  c0.087-0.256,0.131-0.528,0.13-0.816c0-0.302-0.048-0.572-0.144-0.813c-0.096-0.24-0.247-0.445-0.452-0.615  c-0.206-0.169-0.471-0.299-0.794-0.39c-0.324-0.089-0.713-0.135-1.169-0.134l-2.607-0.001v4.079L386.187,222.186L386.187,222.186z   M383.571,212.298v4.022h2.059c0.884-0.001,1.553-0.161,2.006-0.482c0.451-0.321,0.677-0.829,0.677-1.528  c0.001-0.726-0.206-1.242-0.614-1.55c-0.411-0.307-1.053-0.461-1.924-0.461L383.571,212.298L383.571,212.298z"/>
<path d="M390.535,297.873c0.14,0,0.265,0.054,0.374,0.163l1.021,1.106c-0.566,0.699-1.259,1.235-2.083,1.607  c-0.824,0.372-1.812,0.558-2.967,0.558c-1.032,0-1.96-0.177-2.784-0.529c-0.824-0.353-1.527-0.843-2.111-1.472  c-0.583-0.628-1.032-1.378-1.342-2.251c-0.311-0.872-0.467-1.824-0.467-2.856c0.001-1.045,0.168-2.003,0.501-2.871  c0.333-0.869,0.803-1.618,1.409-2.246c0.607-0.628,1.328-1.118,2.169-1.467c0.839-0.35,1.769-0.524,2.789-0.524  c1.013,0,1.912,0.165,2.698,0.5c0.785,0.333,1.453,0.768,2.006,1.307l-0.866,1.203c-0.051,0.077-0.117,0.144-0.197,0.202  c-0.081,0.058-0.191,0.087-0.333,0.087c-0.096,0-0.195-0.028-0.297-0.082c-0.102-0.056-0.215-0.122-0.337-0.201  c-0.122-0.082-0.263-0.17-0.423-0.265c-0.16-0.097-0.347-0.184-0.557-0.265c-0.212-0.08-0.457-0.149-0.736-0.201  c-0.279-0.054-0.601-0.082-0.968-0.083c-0.622-0.001-1.189,0.11-1.707,0.331c-0.515,0.222-0.96,0.543-1.332,0.963  c-0.371,0.42-0.658,0.932-0.864,1.539c-0.206,0.606-0.307,1.298-0.307,2.073c0,0.782,0.11,1.478,0.332,2.086  c0.221,0.609,0.521,1.124,0.899,1.541c0.379,0.417,0.824,0.735,1.337,0.956c0.513,0.221,1.066,0.332,1.655,0.332  c0.352,0,0.672-0.019,0.957-0.058c0.286-0.038,0.548-0.099,0.789-0.182c0.24-0.083,0.468-0.19,0.682-0.321  c0.217-0.132,0.427-0.294,0.639-0.486c0.065-0.057,0.132-0.103,0.202-0.14C390.384,297.889,390.458,297.873,390.535,297.873z"/>
<path d="M393.332,368.608c0,1.02-0.168,1.955-0.509,2.809c-0.34,0.852-0.818,1.586-1.433,2.201  c-0.614,0.617-1.357,1.093-2.223,1.435c-0.864,0.34-1.826,0.509-2.885,0.509l-5.3,0.001v-13.909h5.3c1.057,0,2.02,0.171,2.885,0.515  c0.865,0.344,1.607,0.82,2.222,1.433c0.615,0.612,1.093,1.345,1.433,2.198C393.163,366.652,393.332,367.588,393.332,368.608z   M390.678,368.608c0.001-0.763-0.099-1.448-0.303-2.055c-0.203-0.606-0.492-1.118-0.874-1.538s-0.844-0.741-1.385-0.967  c-0.543-0.224-1.152-0.337-1.832-0.337l-2.703,0.001v9.791h2.704c0.68,0,1.29-0.112,1.832-0.337  c0.542-0.224,1.003-0.546,1.384-0.967c0.382-0.42,0.673-0.932,0.875-1.54C390.577,370.055,390.679,369.371,390.678,368.608z"/>
<g>
</g>
<g>
</g>
<g>
</g>
<g>
</g>
<g>
</g>
<g>
</g>
<g>
</g>
<g>
</g>
<g>
</g>
<g>
</g>
<g>
</g>
<g>
</g>
<g>
</g>
<g>
</g>
<g>
</g>
</svg>
