<?xml version="1.0" encoding="iso-8859-1"?>
<!-- Generator: Adobe Illustrator 19.0.0, SVG Export Plug-In . SVG Version: 6.00 Build 0)  -->
<svg xmlns="http://www.w3.org/2000/svg" xmlns:xlink="http://www.w3.org/1999/xlink" version="1.1" id="Capa_1" x="0px" y="0px" viewBox="0 0 512.007 512.007" style="enable-background:new 0 0 512.007 512.007;" xml:space="preserve">
<circle style="fill:#F7F7F7;" cx="256.003" cy="256.003" r="256.003"/>
<path style="fill:#D9D8DB;" d="M393.891,116.864l-0.013,0.013c-7.314-7.207-16.134-12.959-26.025-16.663v-0.012  c-2.264-0.848-5.595-1.902-8.315-2.57v0.008c-5.881-1.444-11.998-2.174-17.838-2.175h-0.037c-25.626,0-145.623,0-171.331,0h-0.031  c-31.714,0-59.06,19.943-69.687,48.281h-0.01c-0.821,2.179-1.91,5.601-2.632,8.583h0.004c-1.35,5.557-2.109,11.527-2.109,17.569  v0.031c0,2.845,0,172.526,0,173.687c0,19.718,7.839,37.594,20.554,50.719l-0.02,0.02l116.607,116.607  c7.576,0.674,15.241,1.039,22.993,1.039c141.385,0,256-114.615,256-256c0-7.405-0.332-14.73-0.948-21.975L393.891,116.864z"/>
<path style="fill:#D7CCBD;" d="M416.133,335.638c0,44.678-36.219,80.897-80.897,80.897H168.787c-40.272,0-72.92-32.647-72.92-72.92  V169.928c0-41.125,33.339-74.464,74.464-74.464h171.331c41.13,0,74.471,33.342,74.471,74.471V335.638z"/>
<path id="SVGCleanerId_0" style="fill:#EBACCB;" d="M359.537,97.632v54.698h54.492C407.516,125.428,386.401,104.241,359.537,97.632z  "/>
<path id="SVGCleanerId_1" style="fill:#8DC652;" d="M325.203,152.329V95.465H170.301c-35.054,0-64.43,24.238-72.329,56.865H325.203z  "/>
<path style="fill:#F6D433;" d="M208.255,291.809c-31.696-29.809-84.092-35.4-112.388-36.094v54.606  c26.615-0.599,58.636,4.1,80.976,25.11c25.132,23.635,41.263,58.111,77.872,81.103h86.984c19.346,0,36.965-7.384,50.201-19.483  C266.692,399.447,249.758,330.841,208.255,291.809z"/>
<path style="fill:#FFFFFF;" d="M367.853,100.202c-8.138-3.055-16.947-4.737-26.152-4.737h-26.958v48.281H100.604  c-3.055,8.137-4.737,16.947-4.737,26.152v26.957h218.875v219.68h26.957c9.205,0,18.014-1.682,26.152-4.737v-70.099h48.281V288.59  h-48.281v-91.734h48.281v-26.957c0-9.205-1.682-18.015-4.737-26.152h-43.544L367.853,100.202L367.853,100.202z"/>
<circle style="fill:#497FC1;" cx="341.302" cy="317.02" r="32.188"/>
<path style="fill:#5F98D1;" d="M95.867,169.899v15.691h231.214v97.14c4.403-1.75,9.197-2.723,14.216-2.723  c5.019,0,9.812,0.973,14.216,2.723v-97.14h0.259v-28.433H96.976C96.26,161.3,95.867,165.552,95.867,169.899z"/>
<polygon style="fill:#FFFFFF;" points="341.297,320.525 326.822,335.506 341.297,294.793 355.773,335.506 "/>
<path style="fill:#497FC1;" d="M236.688,230.545c-11.206,0-21.647-3.834-30.075-10.235c-8.597,6.878-19.421,11.04-31.081,11.04  c-11.638,0-22.448-4.142-31.037-10.996v44.502c0,26.122,27.226,56.954,60.811,56.954s60.811-30.832,60.811-56.954v-44.069  C257.803,226.899,247.609,230.545,236.688,230.545z"/>
<path style="fill:#E25F3F;" d="M266.117,248.865v-28.078c-8.314,6.112-18.507,9.758-29.429,9.758  c-11.206,0-21.647-3.834-30.075-10.235c-8.597,6.878-19.421,11.04-31.081,11.04c-11.638,0-22.448-4.142-31.037-10.996v28.511  H266.117z"/>
<g>
	<path style="fill:#FFFFFF;" d="M190.507,286.224c0.637,0,1.142,0.179,1.516,0.537c0.375,0.358,0.561,0.832,0.561,1.421v3.533   h-23.686v-1.958c0-0.397,0.083-0.815,0.25-1.253c0.168-0.437,0.434-0.831,0.801-1.181l10.482-10.507   c0.875-0.89,1.659-1.743,2.352-2.554c0.692-0.811,1.269-1.616,1.731-2.411c0.461-0.797,0.815-1.604,1.063-2.423   c0.246-0.82,0.37-1.684,0.37-2.591c0-0.828-0.119-1.556-0.358-2.185s-0.577-1.158-1.014-1.588s-0.963-0.752-1.576-0.966   c-0.613-0.214-1.301-0.322-2.065-0.322c-0.701,0-1.35,0.101-1.946,0.299c-0.596,0.199-1.127,0.477-1.587,0.836   c-0.462,0.358-0.852,0.776-1.17,1.253s-0.557,1.004-0.717,1.576c-0.271,0.733-0.62,1.218-1.05,1.457   c-0.43,0.24-1.051,0.295-1.862,0.167l-3.104-0.549c0.239-1.655,0.7-3.108,1.385-4.358c0.684-1.25,1.54-2.292,2.567-3.128   c1.027-0.836,2.204-1.464,3.533-1.886c1.329-0.422,2.758-0.633,4.286-0.633c1.591,0,3.048,0.235,4.369,0.704   c1.321,0.47,2.451,1.134,3.39,1.993c0.94,0.86,1.671,1.895,2.198,3.104c0.525,1.211,0.788,2.555,0.788,4.035   c0,1.274-0.187,2.452-0.561,3.534c-0.374,1.082-0.875,2.117-1.504,3.104c-0.629,0.987-1.365,1.942-2.208,2.865   c-0.844,0.924-1.727,1.863-2.65,2.818l-7.785,7.95c0.748-0.223,1.493-0.393,2.233-0.514s1.444-0.179,2.114-0.179h8.855V286.224z"/>
	<path style="fill:#FFFFFF;" d="M214.455,273.712c2.101,0.684,3.654,1.731,4.656,3.141c1.004,1.409,1.504,3.132,1.504,5.169   c0,1.528-0.29,2.913-0.872,4.154c-0.582,1.242-1.397,2.301-2.447,3.176c-1.051,0.875-2.313,1.552-3.785,2.03   c-1.473,0.477-3.101,0.717-4.883,0.717c-1.783,0-3.411-0.239-4.883-0.717c-1.473-0.477-2.734-1.154-3.785-2.03   c-1.05-0.875-1.866-1.934-2.447-3.176c-0.581-1.241-0.872-2.626-0.872-4.154c0-2.037,0.502-3.76,1.504-5.169   c1.003-1.41,2.554-2.456,4.656-3.141c-1.671-0.7-2.925-1.695-3.76-2.984c-0.836-1.29-1.253-2.841-1.253-4.656   c0-1.304,0.266-2.523,0.8-3.653c0.533-1.13,1.278-2.114,2.233-2.949c0.955-0.835,2.097-1.489,3.427-1.958   c1.329-0.469,2.79-0.704,4.381-0.704c1.591,0,3.052,0.235,4.381,0.704c1.329,0.47,2.472,1.123,3.427,1.958s1.7,1.819,2.233,2.949   s0.8,2.348,0.8,3.653c0,1.815-0.418,3.367-1.253,4.656C217.379,272.017,216.126,273.012,214.455,273.712z M208.628,287.488   c0.97,0,1.823-0.139,2.554-0.418c0.732-0.278,1.349-0.664,1.85-1.158c0.502-0.493,0.879-1.082,1.134-1.767   c0.254-0.683,0.383-1.424,0.383-2.22c0-1.895-0.525-3.327-1.576-4.297c-1.05-0.971-2.499-1.457-4.346-1.457   c-1.848,0-3.295,0.485-4.346,1.457c-1.05,0.97-1.575,2.404-1.575,4.297c0,0.797,0.127,1.537,0.382,2.22   c0.254,0.684,0.633,1.274,1.134,1.767c0.502,0.494,1.118,0.88,1.85,1.158C206.805,287.349,207.657,287.488,208.628,287.488z    M208.628,261.248c-0.875,0-1.632,0.135-2.269,0.405c-0.637,0.27-1.166,0.633-1.587,1.087c-0.422,0.454-0.733,0.975-0.931,1.564   c-0.199,0.59-0.299,1.211-0.299,1.862c0,0.685,0.083,1.35,0.25,1.993c0.168,0.645,0.45,1.218,0.848,1.719   c0.397,0.502,0.924,0.903,1.576,1.206c0.653,0.304,1.457,0.454,2.411,0.454s1.759-0.151,2.411-0.454   c0.653-0.303,1.178-0.704,1.576-1.206c0.397-0.502,0.68-1.075,0.848-1.719c0.167-0.644,0.25-1.308,0.25-1.993   c0-0.652-0.104-1.273-0.311-1.862c-0.207-0.589-0.518-1.11-0.932-1.564c-0.414-0.454-0.94-0.816-1.575-1.087   C210.26,261.383,209.503,261.248,208.628,261.248z"/>
	<path style="fill:#FFFFFF;" d="M248.98,274.451c0,3.009-0.322,5.623-0.967,7.844c-0.645,2.221-1.536,4.055-2.674,5.504   c-1.139,1.448-2.483,2.527-4.035,3.235c-1.552,0.709-3.227,1.063-5.026,1.063s-3.466-0.354-5.002-1.063   c-1.537-0.708-2.87-1.787-4-3.235c-1.13-1.449-2.014-3.283-2.65-5.504c-0.637-2.22-0.955-4.835-0.955-7.844   c0-3.024,0.318-5.643,0.955-7.855c0.637-2.212,1.52-4.044,2.65-5.491c1.13-1.449,2.463-2.527,4-3.236   c1.536-0.708,3.203-1.062,5.002-1.062s3.474,0.354,5.026,1.062c1.552,0.709,2.897,1.787,4.035,3.236   c1.138,1.448,2.03,3.279,2.674,5.491C248.658,268.809,248.98,271.428,248.98,274.451z M242.891,274.451   c0-2.498-0.183-4.569-0.549-6.208c-0.367-1.639-0.856-2.945-1.468-3.916c-0.613-0.97-1.317-1.651-2.114-2.042   c-0.797-0.39-1.624-0.585-2.483-0.585c-0.844,0-1.659,0.194-2.447,0.585c-0.788,0.39-1.485,1.072-2.089,2.042   c-0.605,0.97-1.086,2.276-1.444,3.916c-0.358,1.64-0.537,3.71-0.537,6.208c0,2.499,0.179,4.57,0.537,6.208   c0.358,1.64,0.84,2.945,1.444,3.917c0.604,0.97,1.301,1.651,2.089,2.041c0.788,0.389,1.603,0.586,2.447,0.586   c0.86,0,1.687-0.195,2.483-0.586c0.796-0.39,1.5-1.071,2.114-2.041c0.612-0.971,1.102-2.277,1.468-3.917   C242.708,279.021,242.891,276.951,242.891,274.451z"/>
	<path style="fill:#FFFFFF;" d="M206.706,228.213c9.036,5.752,19.308,8.769,29.982,8.769c7.992,0,15.779-1.703,22.991-4.984v32.857   c0,11.171-5.951,23.774-15.919,33.714c-10.866,10.835-24.523,16.802-38.454,16.802c-13.931,0-27.589-5.967-38.454-16.802   c-9.968-9.94-15.919-22.543-15.919-33.714v-32.844c7.669,3.767,16.104,5.775,24.601,5.775   C186.535,237.787,197.437,234.416,206.706,228.213 M206.613,220.31c-8.597,6.878-19.421,11.04-31.081,11.04   c-11.638,0-22.448-4.142-31.037-10.996v44.502c0,26.122,27.226,56.954,60.811,56.954s60.811-30.832,60.811-56.954v-44.069   c-8.314,6.112-18.507,9.758-29.429,9.758C225.483,230.545,215.041,226.712,206.613,220.31L206.613,220.31z"/>
</g>
<line style="fill:none;stroke:#FFFFFF;stroke-width:6.53;stroke-miterlimit:10;" x1="148.168" y1="248.757" x2="262.037" y2="248.757"/>
<path style="fill:#D7CCBD;" d="M416.133,335.638c0,44.678-36.219,80.897-80.897,80.897H168.787c-40.272,0-72.92-32.647-72.92-72.92  V169.928c0-41.125,33.339-74.464,74.464-74.464h171.331c41.13,0,74.471,33.342,74.471,74.471V335.638z"/>
<g>
	<path id="SVGCleanerId_0_1_" style="fill:#EBACCB;" d="M359.537,97.632v54.698h54.492   C407.516,125.428,386.401,104.241,359.537,97.632z"/>
</g>
<g>
	<path id="SVGCleanerId_1_1_" style="fill:#8DC652;" d="M325.203,152.329V95.465H170.301c-35.054,0-64.43,24.238-72.329,56.865   H325.203z"/>
</g>
<path style="fill:#F6D433;" d="M208.255,291.809c-31.696-29.809-84.092-35.4-112.388-36.094v54.606  c26.615-0.599,58.636,4.1,80.976,25.11c25.132,23.635,41.263,58.111,77.872,81.103h86.984c19.346,0,36.965-7.384,50.201-19.483  C266.692,399.447,249.758,330.841,208.255,291.809z"/>
<path style="fill:#FFFFFF;" d="M367.853,100.202c-8.138-3.055-16.947-4.737-26.152-4.737h-26.958v48.281H100.604  c-3.055,8.137-4.737,16.947-4.737,26.152v26.957h218.875v219.68h26.957c9.205,0,18.014-1.682,26.152-4.737v-70.099h48.281V288.59  h-48.281v-91.734h48.281v-26.957c0-9.205-1.682-18.015-4.737-26.152h-43.544L367.853,100.202L367.853,100.202z"/>
<circle style="fill:#497FC1;" cx="341.302" cy="317.02" r="32.188"/>
<path style="fill:#5F98D1;" d="M95.867,169.899v15.691h231.214v97.14c4.403-1.75,9.197-2.723,14.216-2.723  c5.019,0,9.812,0.973,14.216,2.723v-97.14h0.259v-28.433H96.976C96.26,161.3,95.867,165.552,95.867,169.899z"/>
<polygon style="fill:#FFFFFF;" points="341.297,320.525 326.822,335.506 341.297,294.793 355.773,335.506 "/>
<path style="fill:#497FC1;" d="M236.688,230.545c-11.206,0-21.647-3.834-30.075-10.235c-8.597,6.878-19.421,11.04-31.081,11.04  c-11.638,0-22.448-4.142-31.037-10.996v44.502c0,26.122,27.226,56.954,60.811,56.954s60.811-30.832,60.811-56.954v-44.069  C257.803,226.899,247.609,230.545,236.688,230.545z"/>
<path style="fill:#E25F3F;" d="M266.117,248.865v-28.078c-8.314,6.112-18.507,9.758-29.429,9.758  c-11.206,0-21.647-3.834-30.075-10.235c-8.597,6.878-19.421,11.04-31.081,11.04c-11.638,0-22.448-4.142-31.037-10.996v28.511  H266.117z"/>
<g>
	<path style="fill:#FFFFFF;" d="M190.507,286.224c0.637,0,1.142,0.179,1.516,0.537c0.375,0.358,0.561,0.832,0.561,1.421v3.533   h-23.686v-1.958c0-0.397,0.083-0.815,0.25-1.253c0.168-0.437,0.434-0.831,0.801-1.181l10.482-10.507   c0.875-0.89,1.659-1.743,2.352-2.554c0.692-0.811,1.269-1.616,1.731-2.411c0.461-0.797,0.815-1.604,1.063-2.423   c0.246-0.82,0.37-1.684,0.37-2.591c0-0.828-0.119-1.556-0.358-2.185s-0.577-1.158-1.014-1.588s-0.963-0.752-1.576-0.966   c-0.613-0.214-1.301-0.322-2.065-0.322c-0.701,0-1.35,0.101-1.946,0.299c-0.596,0.199-1.127,0.477-1.587,0.836   c-0.462,0.358-0.852,0.776-1.17,1.253s-0.557,1.004-0.717,1.576c-0.271,0.733-0.62,1.218-1.05,1.457   c-0.43,0.24-1.051,0.295-1.862,0.167l-3.104-0.549c0.239-1.655,0.7-3.108,1.385-4.358c0.684-1.25,1.54-2.292,2.567-3.128   c1.027-0.836,2.204-1.464,3.533-1.886c1.329-0.422,2.758-0.633,4.286-0.633c1.591,0,3.048,0.235,4.369,0.704   c1.321,0.47,2.451,1.134,3.39,1.993c0.94,0.86,1.671,1.895,2.198,3.104c0.525,1.211,0.788,2.555,0.788,4.035   c0,1.274-0.187,2.452-0.561,3.534c-0.374,1.082-0.875,2.117-1.504,3.104c-0.629,0.987-1.365,1.942-2.208,2.865   c-0.844,0.924-1.727,1.863-2.65,2.818l-7.785,7.95c0.748-0.223,1.493-0.393,2.233-0.514s1.444-0.179,2.114-0.179h8.855V286.224z"/>
	<path style="fill:#FFFFFF;" d="M214.455,273.712c2.101,0.684,3.654,1.731,4.656,3.141c1.004,1.409,1.504,3.132,1.504,5.169   c0,1.528-0.29,2.913-0.872,4.154c-0.582,1.242-1.397,2.301-2.447,3.176c-1.051,0.875-2.313,1.552-3.785,2.03   c-1.473,0.477-3.101,0.717-4.883,0.717c-1.783,0-3.411-0.239-4.883-0.717c-1.473-0.477-2.734-1.154-3.785-2.03   c-1.05-0.875-1.866-1.934-2.447-3.176c-0.581-1.241-0.872-2.626-0.872-4.154c0-2.037,0.502-3.76,1.504-5.169   c1.003-1.41,2.554-2.456,4.656-3.141c-1.671-0.7-2.925-1.695-3.76-2.984c-0.836-1.29-1.253-2.841-1.253-4.656   c0-1.304,0.266-2.523,0.8-3.653c0.533-1.13,1.278-2.114,2.233-2.949c0.955-0.835,2.097-1.489,3.427-1.958   c1.329-0.469,2.79-0.704,4.381-0.704c1.591,0,3.052,0.235,4.381,0.704c1.329,0.47,2.472,1.123,3.427,1.958s1.7,1.819,2.233,2.949   s0.8,2.348,0.8,3.653c0,1.815-0.418,3.367-1.253,4.656C217.379,272.017,216.126,273.012,214.455,273.712z M208.628,287.488   c0.97,0,1.823-0.139,2.554-0.418c0.732-0.278,1.349-0.664,1.85-1.158c0.502-0.493,0.879-1.082,1.134-1.767   c0.254-0.683,0.383-1.424,0.383-2.22c0-1.895-0.525-3.327-1.576-4.297c-1.05-0.971-2.499-1.457-4.346-1.457   c-1.848,0-3.295,0.485-4.346,1.457c-1.05,0.97-1.575,2.404-1.575,4.297c0,0.797,0.127,1.537,0.382,2.22   c0.254,0.684,0.633,1.274,1.134,1.767c0.502,0.494,1.118,0.88,1.85,1.158C206.805,287.349,207.657,287.488,208.628,287.488z    M208.628,261.248c-0.875,0-1.632,0.135-2.269,0.405c-0.637,0.27-1.166,0.633-1.587,1.087c-0.422,0.454-0.733,0.975-0.931,1.564   c-0.199,0.59-0.299,1.211-0.299,1.862c0,0.685,0.083,1.35,0.25,1.993c0.168,0.645,0.45,1.218,0.848,1.719   c0.397,0.502,0.924,0.903,1.576,1.206c0.653,0.304,1.457,0.454,2.411,0.454s1.759-0.151,2.411-0.454   c0.653-0.303,1.178-0.704,1.576-1.206c0.397-0.502,0.68-1.075,0.848-1.719c0.167-0.644,0.25-1.308,0.25-1.993   c0-0.652-0.104-1.273-0.311-1.862c-0.207-0.589-0.518-1.11-0.932-1.564c-0.414-0.454-0.94-0.816-1.575-1.087   C210.26,261.383,209.503,261.248,208.628,261.248z"/>
	<path style="fill:#FFFFFF;" d="M248.98,274.451c0,3.009-0.322,5.623-0.967,7.844c-0.645,2.221-1.536,4.055-2.674,5.504   c-1.139,1.448-2.483,2.527-4.035,3.235c-1.552,0.709-3.227,1.063-5.026,1.063s-3.466-0.354-5.002-1.063   c-1.537-0.708-2.87-1.787-4-3.235c-1.13-1.449-2.014-3.283-2.65-5.504c-0.637-2.22-0.955-4.835-0.955-7.844   c0-3.024,0.318-5.643,0.955-7.855c0.637-2.212,1.52-4.044,2.65-5.491c1.13-1.449,2.463-2.527,4-3.236   c1.536-0.708,3.203-1.062,5.002-1.062s3.474,0.354,5.026,1.062c1.552,0.709,2.897,1.787,4.035,3.236   c1.138,1.448,2.03,3.279,2.674,5.491C248.658,268.809,248.98,271.428,248.98,274.451z M242.891,274.451   c0-2.498-0.183-4.569-0.549-6.208c-0.367-1.639-0.856-2.945-1.468-3.916c-0.613-0.97-1.317-1.651-2.114-2.042   c-0.797-0.39-1.624-0.585-2.483-0.585c-0.844,0-1.659,0.194-2.447,0.585c-0.788,0.39-1.485,1.072-2.089,2.042   c-0.605,0.97-1.086,2.276-1.444,3.916c-0.358,1.64-0.537,3.71-0.537,6.208c0,2.499,0.179,4.57,0.537,6.208   c0.358,1.64,0.84,2.945,1.444,3.917c0.604,0.97,1.301,1.651,2.089,2.041c0.788,0.389,1.603,0.586,2.447,0.586   c0.86,0,1.687-0.195,2.483-0.586c0.796-0.39,1.5-1.071,2.114-2.041c0.612-0.971,1.102-2.277,1.468-3.917   C242.708,279.021,242.891,276.951,242.891,274.451z"/>
	<path style="fill:#FFFFFF;" d="M206.706,228.213c9.036,5.752,19.308,8.769,29.982,8.769c7.992,0,15.779-1.703,22.991-4.984v32.857   c0,11.171-5.951,23.774-15.919,33.714c-10.866,10.835-24.523,16.802-38.454,16.802c-13.931,0-27.589-5.967-38.454-16.802   c-9.968-9.94-15.919-22.543-15.919-33.714v-32.844c7.669,3.767,16.104,5.775,24.601,5.775   C186.535,237.787,197.437,234.416,206.706,228.213 M206.613,220.31c-8.597,6.878-19.421,11.04-31.081,11.04   c-11.638,0-22.448-4.142-31.037-10.996v44.502c0,26.122,27.226,56.954,60.811,56.954s60.811-30.832,60.811-56.954v-44.069   c-8.314,6.112-18.507,9.758-29.429,9.758C225.483,230.545,215.041,226.712,206.613,220.31L206.613,220.31z"/>
	<rect x="148.168" y="245.543" style="fill:#FFFFFF;" width="113.859" height="6.437"/>
</g>
<g>
</g>
<g>
</g>
<g>
</g>
<g>
</g>
<g>
</g>
<g>
</g>
<g>
</g>
<g>
</g>
<g>
</g>
<g>
</g>
<g>
</g>
<g>
</g>
<g>
</g>
<g>
</g>
<g>
</g>
</svg>
