<?xml version="1.0" encoding="iso-8859-1"?>
<!-- Generator: Adobe Illustrator 19.0.0, SVG Export Plug-In . SVG Version: 6.00 Build 0)  -->
<svg xmlns="http://www.w3.org/2000/svg" xmlns:xlink="http://www.w3.org/1999/xlink" version="1.1" id="Capa_1" x="0px" y="0px" viewBox="0 0 512 512" style="enable-background:new 0 0 512 512;" xml:space="preserve">
<circle style="fill:#F7F7F7;" cx="256" cy="256" r="256"/>
<path style="fill:#D9D8DB;" d="M394.379,114.813l-0.084,0.084c-13.795-13.104-32.432-21.162-52.961-21.162H170.667  c-42.488,0-76.931,34.443-76.931,76.931v7.926l0,0c0,177.515-0.033,162.106,0.06,165.132l0,0c0,0.004,0.214,3.855,0.214,3.855  c0.103,1.277,0.236,2.543,0.4,3.801v0.001c2.196,16.82,9.975,33.005,23.226,45.652l113.788,113.788  C239.512,511.591,247.708,512,256,512c141.385,0,256-114.615,256-256c0-8.355-0.414-16.612-1.196-24.763L394.379,114.813z"/>
<path style="fill:#E25F3F;" d="M418.265,341.333c0,42.488-34.443,76.931-76.931,76.931H170.667  c-42.488,0-76.931-34.443-76.931-76.931V170.667c0-42.488,34.443-76.931,76.931-76.931h170.667  c42.488,0,76.931,34.443,76.931,76.931L418.265,341.333L418.265,341.333z"/>
<path style="fill:#5F98D1;" d="M369.849,178.593c0.002,0.104,0.016,0.206,0.016,0.31c0,8.973-7.487,16.46-16.46,16.46  c-8.973,0-16.46-7.487-16.46-16.46c0-0.105,0.014-0.207,0.016-0.31H93.735v162.741c0,42.488,34.443,76.931,76.931,76.931h170.667  c42.488,0,76.931-34.443,76.931-76.931V178.593H369.849z"/>
<path style="fill:#8DC652;" d="M291.101,256.191c0.006,0.266,0.021,0.53,0.021,0.798c0,18.851-15.731,34.582-34.581,34.582  s-34.582-15.731-34.582-34.582c0-0.267,0.015-0.532,0.021-0.798H93.735v85.142c0,42.488,34.443,76.931,76.931,76.931h170.667  c42.488,0,76.931-34.443,76.931-76.931v-85.142H291.101z"/>
<path style="fill:#DF871E;" d="M170.667,418.265h170.667c41.686,0,75.605-33.161,76.871-74.54c-0.819-0.072-1.62-0.406-2.247-1.033  l-2.988-2.988c-1.419-1.418-3.719-1.419-5.138,0l-2.988,2.989c-1.419,1.418-3.719,1.418-5.138,0l-2.988-2.988  c-1.418-1.418-3.718-1.419-5.138,0l-2.989,2.989c-1.418,1.418-3.718,1.418-5.138,0l-2.988-2.988c-1.419-1.418-3.719-1.419-5.138,0  l-2.989,2.989c-1.419,1.418-3.719,1.418-5.138,0l-2.989-2.989c-1.419-1.418-3.719-1.418-5.138,0l-2.988,2.988  c-1.418,1.419-3.718,1.419-5.138,0l-2.989-2.989c-1.418-1.418-3.718-1.418-5.138,0l-2.988,2.988c-1.418,1.419-3.719,1.419-5.138,0  l-2.989-2.989c-1.419-1.418-3.719-1.418-5.138,0l-2.989,2.989c-1.419,1.418-3.719,1.418-5.138,0l-2.988-2.988  c-1.419-1.418-3.719-1.419-5.138,0l-2.988,2.989c-1.419,1.418-3.719,1.418-5.138,0l-2.988-2.988c-1.418-1.418-3.719-1.419-5.138,0  l-2.989,2.989c-1.419,1.418-3.719,1.418-5.138,0l-2.988-2.988c-1.419-1.418-3.719-1.418-5.138,0l-2.989,2.989  c-1.419,1.418-3.719,1.418-5.138,0l-2.988-2.989c-1.419-1.418-3.719-1.418-5.138,0l-2.988,2.988c-1.418,1.419-3.718,1.419-5.138,0  l-2.989-2.989c-1.418-1.418-3.718-1.418-5.138,0l-2.988,2.988c-1.419,1.419-3.719,1.419-5.138,0l-2.988-2.989  c-1.419-1.418-3.719-1.418-5.138,0l-2.988,2.988c-1.419,1.419-3.719,1.419-5.138,0l-2.989-2.989c-1.418-1.418-3.718-1.418-5.138,0  l-2.989,2.989c-1.418,1.418-3.718,1.418-5.138,0l-2.988-2.988c-1.418-1.418-3.719-1.419-5.138,0l-2.989,2.989  c-1.419,1.418-3.719,1.418-5.138,0l-2.988-2.988c-1.419-1.418-3.719-1.419-5.138,0l-2.988,2.989c-1.419,1.418-3.719,1.418-5.138,0  l-2.988-2.989c-1.419-1.418-3.719-1.418-5.138,0l-2.988,2.988c-1.418,1.419-3.719,1.419-5.138,0l-2.989-2.989  c-1.419-1.418-3.719-1.418-5.138,0l-2.988,2.988c-1.419,1.419-3.719,1.419-5.138,0l-2.988-2.989c-1.419-1.418-3.719-1.418-5.138,0  l-2.988,2.988c-1.419,1.419-3.719,1.419-5.138,0l-2.988-2.989c-1.419-1.418-3.719-1.418-5.138,0l-2.988,2.988  c-1.419,1.419-3.719,1.419-5.138,0l-2.989-2.989c-1.419-1.418-3.719-1.418-5.138,0l-2.989,2.989  c-0.628,0.628-1.427,0.961-2.247,1.033C95.061,385.103,128.981,418.265,170.667,418.265z"/>
<g>
	<path style="fill:#FFFFFF;" d="M130.603,154.069c0,3.07,2.49,5.56,5.56,5.56h34.842c3.07,0,5.56-2.49,5.56-5.56v-14.208h-45.961   V154.069z"/>
	<path style="fill:#FFFFFF;" d="M171.005,124.541h-34.842c-3.07,0-5.56,2.489-5.56,5.56v3.83h45.961v-3.83   C176.565,127.029,174.075,124.541,171.005,124.541z"/>
	<path style="fill:#FFFFFF;" d="M141.784,236.23h4.235l13.862-13.944c2.2,0.148,4.018,0.227,5.199,0.227   c6.907,0,12.505-2.709,12.505-6.051c0-3.342-5.599-6.051-12.505-6.051c-1.182,0-3,0.079-5.199,0.227l-13.862-13.944h-4.235   l7.2,14.954c-3.178,0.369-6.391,0.808-9.264,1.302l-3.986-6.777h-3.126v8.376c-1.882,0.601-3.026,1.243-3.026,1.911   c0,0.667,1.144,1.31,3.026,1.911v8.377h3.126l3.986-6.777c2.873,0.494,6.087,0.933,9.264,1.302L141.784,236.23z"/>
	<rect x="132.725" y="301.171" style="fill:#FFFFFF;" width="31.433" height="19.546"/>
	<polygon style="fill:#FFFFFF;" points="167.104,306.759 167.104,315.132 179.847,321.621 179.847,300.27  "/>
	<path style="fill:#FFFFFF;" d="M147.583,285.652c0-5.587-4.545-10.131-10.131-10.131c-5.587,0-10.131,4.545-10.131,10.131   s4.545,10.131,10.131,10.131C143.038,295.784,147.583,291.239,147.583,285.652z M132.262,285.652c0-2.861,2.328-5.189,5.189-5.189   c2.861,0,5.189,2.328,5.189,5.189s-2.328,5.189-5.189,5.189C134.59,290.842,132.262,288.514,132.262,285.652z"/>
	<path style="fill:#FFFFFF;" d="M160.185,295.784c5.587,0,10.131-4.545,10.131-10.131s-4.545-10.131-10.131-10.131   c-5.587,0-10.131,4.545-10.131,10.131S154.598,295.784,160.185,295.784z M160.185,280.463c2.861,0,5.189,2.328,5.189,5.189   s-2.328,5.189-5.189,5.189c-2.861,0-5.189-2.328-5.189-5.189S157.324,280.463,160.185,280.463z"/>
	<path style="fill:#FFFFFF;" d="M180.506,362.07H136.16c-0.445-0.076-0.899-0.124-1.366-0.124c-4.485,0-8.135,3.649-8.135,8.135   c0,4.485,3.649,8.135,8.135,8.135c1.318,0,2.559-0.322,3.661-0.881c2.265,4.261,5.457,7.723,9.232,9.954h19.93   c7.631-4.51,12.892-14.038,12.892-25.062C180.509,362.175,180.506,362.122,180.506,362.07z M134.794,374.246   c-2.297,0-4.166-1.869-4.166-4.166s1.869-4.166,4.166-4.166c0.072,0,0.139,0.018,0.21,0.021c0.299,2.732,0.917,5.339,1.818,7.761   C136.219,374.037,135.534,374.246,134.794,374.246z"/>
	<rect x="144.427" y="390.988" style="fill:#FFFFFF;" width="26.44" height="3.973"/>
</g>
<g>
</g>
<g>
</g>
<g>
</g>
<g>
</g>
<g>
</g>
<g>
</g>
<g>
</g>
<g>
</g>
<g>
</g>
<g>
</g>
<g>
</g>
<g>
</g>
<g>
</g>
<g>
</g>
<g>
</g>
</svg>
