<?xml version="1.0" encoding="iso-8859-1"?>
<!-- Generator: Adobe Illustrator 19.0.0, SVG Export Plug-In . SVG Version: 6.00 Build 0)  -->
<svg xmlns="http://www.w3.org/2000/svg" xmlns:xlink="http://www.w3.org/1999/xlink" version="1.1" id="Capa_1" x="0px" y="0px" viewBox="0 0 512 512" style="enable-background:new 0 0 512 512;" xml:space="preserve">
<circle style="fill:#6AAF50;" cx="256" cy="256" r="256"/>
<path style="fill:#4D8538;" d="M512,256c0-0.179-0.007-0.354-0.007-0.533l-77.695-77.695h-11.317v7.255l-7.255-7.255l-34.074,24.052  l-44.696-44.696H106.62v50.787l-8.752-8.752H77.702v31.023l28.918,28.918v95.766l157.006,157.006  C401.482,507.843,512,394.833,512,256z"/>
<g>
	<rect x="106.618" y="157.131" style="fill:#FFFFFF;" width="230.341" height="197.738"/>
	<rect x="77.702" y="199.16" style="fill:#FFFFFF;" width="20.165" height="31.023"/>
	<polygon style="fill:#FFFFFF;" points="348.367,225.32 348.367,286.68 415.726,334.227 415.726,177.773  "/>
	<rect x="422.979" y="177.778" style="fill:#FFFFFF;" width="11.317" height="156.454"/>
</g>
<g>
</g>
<g>
</g>
<g>
</g>
<g>
</g>
<g>
</g>
<g>
</g>
<g>
</g>
<g>
</g>
<g>
</g>
<g>
</g>
<g>
</g>
<g>
</g>
<g>
</g>
<g>
</g>
<g>
</g>
</svg>
