<svg id="Capa_1" enable-background="new 0 0 509.865 509.865" height="512" viewBox="0 0 509.865 509.865" width="512" xmlns="http://www.w3.org/2000/svg"><g id="XMLID_68_"><path id="XMLID_362_" d="m484.219 128.263c-21.313-21.313-50.966-29.321-78.547-24.023 1.043-5.438 1.577-11.018 1.577-16.678 0-23.389-9.108-45.377-25.646-61.915-16.539-16.539-38.527-25.647-61.915-25.647-23.389 0-45.377 9.108-61.915 25.646s-25.646 38.526-25.646 61.915c0 23.226 8.982 45.07 25.302 61.568l-108.299 108.3c-34.168-33.798-89.459-33.682-123.484.344-34.139 34.14-34.139 89.69 0 123.83 21.312 21.312 50.967 29.32 78.547 24.023-1.043 5.438-1.577 11.018-1.577 16.678 0 23.389 9.108 45.377 25.646 61.915s38.526 25.646 61.915 25.646 45.377-9.108 61.915-25.646c16.539-16.538 25.646-38.526 25.646-61.915 0-22.418-8.366-43.548-23.624-59.826l108.363-108.363c34.281 32.105 88.289 31.432 121.742-2.021 34.139-34.141 34.139-89.692 0-123.831z" fill="#fff1b3"/><path id="XMLID_1175_" d="m484.219 128.263c-21.313-21.313-50.966-29.321-78.547-24.023l-301.497 301.496c-1.029 5.404-1.558 10.945-1.558 16.568 0 23.389 9.108 45.377 25.646 61.915s38.526 25.646 61.915 25.646 45.377-9.108 61.915-25.646c16.539-16.538 25.646-38.526 25.646-61.915 0-22.418-8.366-43.548-23.624-59.826l108.363-108.363c34.281 32.105 88.289 31.432 121.742-2.021 34.138-34.141 34.138-89.692-.001-123.831z" fill="#ffe898"/><path id="XMLID_12_" d="m83.952 334.08c7.846 0 15.363-6.899 15-15-.364-8.127-6.591-15-15-15-7.846 0-15.363 6.899-15 15 .364 8.127 6.591 15 15 15z" fill="#ffb64c"/><path id="XMLID_13_" d="m189.452 439.58c7.846 0 15.363-6.899 15-15-.364-8.127-6.591-15-15-15-7.846 0-15.363 6.899-15 15 .364 8.127 6.591 15 15 15z" fill="#e69f34"/><path id="XMLID_14_" d="m320.285 98.747c7.846 0 15.363-6.899 15-15-.364-8.127-6.591-15-15-15-7.846 0-15.363 6.899-15 15 .364 8.127 6.591 15 15 15z" fill="#ffb64c"/><path id="XMLID_15_" d="m425.785 204.247c7.846 0 15.363-6.899 15-15-.364-8.127-6.591-15-15-15-7.846 0-15.363 6.899-15 15 .364 8.127 6.591 15 15 15z" fill="#e69f34"/><path id="XMLID_332_" d="m199.957 240.933h107.952v30h-107.952z" fill="#ffb64c" transform="matrix(.707 -.707 .707 .707 -106.597 254.518)"/><path id="XMLID_1619_" d="m205.271 253.764h107.952v14.967h-107.952z" fill="#e69f34" transform="matrix(.707 -.707 .707 .707 -108.798 259.833)"/></g></svg>