<svg id="Capa_1" enable-background="new 0 0 509.673 509.673" height="512" viewBox="0 0 509.673 509.673" width="512" xmlns="http://www.w3.org/2000/svg"><g id="XMLID_89_"><path id="XMLID_90_" d="m395.407 188.057 7.379 7.379c24.452 24.452 64.097 24.452 88.549 0s24.452-64.097 0-88.549-64.097-24.452-88.549 0c-.247.247-.475.505-.717.754l-.037-.037c.25-.242.507-.47.754-.717 24.452-24.452 24.452-64.097 0-88.549-24.452-24.452-64.097-24.452-88.549 0s-24.452 64.097 0 88.549l8.855 8.855-207.35 207.35-8.855-8.855c-24.452-24.452-64.097-24.452-88.549 0-24.452 24.452-24.452 64.097 0 88.549s64.097 24.452 88.549 0c-24.452 24.452-24.452 64.097 0 88.549s64.097 24.452 88.549 0 24.452-64.097 0-88.549l-7.379-7.379z" fill="#f5f3f2"/><path id="XMLID_771_" d="m491.334 106.888c-24.452-24.452-64.095-24.452-88.548-.001l-.002.002c-.246.246-.475.504-.716.753l-.019-.019-295.162 295.163c-24.452 24.452-24.452 64.096 0 88.548s64.097 24.452 88.549 0 24.452-64.097 0-88.549l-7.379-7.379 207.349-207.349 7.379 7.379c24.452 24.452 64.097 24.452 88.549 0s24.452-64.096 0-88.548z" fill="#ede9e8"/></g></svg>