<svg id="Capa_1" enable-background="new 0 0 508.092 508.092" height="512" viewBox="0 0 508.092 508.092" width="512" xmlns="http://www.w3.org/2000/svg"><g id="XMLID_549_"><path id="XMLID_461_" d="m375.287 423.156-12.063-104.917c-.172-20.227-6.165-43.566-16.92-65.84-11.727-24.285-28.015-45.312-47.105-60.807l-.102-.083c-28.778-23.23-28.778-71.102-28.778-113.411v-5.747l-64.977-72.351h-40.675c-14.742 0-28.787 7.068-37.569 18.909l-8.142 10.976c-3.15 4.247-8.188 12.782-13.475 12.782h-15.066c-10.982 0-21.479-1.305-28.799 6.881s-10.817 19.14-9.595 30.054l5.591 16.128c1.678 14.974 8.192 28.258 21.829 34.667l30.965 11.734c-7.149 35.135-26.284 138.654-26.284 165.121v111.804c-23.298 1.421-47.817 20.827-47.817 44.476 0 24.57 19.989 44.56 44.56 44.56h197.363 21.331c21.71 0 42.448-9.295 56.896-25.5 14.448-16.204 21.312-37.868 18.832-59.436z" fill="#ffd17b"/><path id="XMLID_534_" d="m387.829 508.091h-103.27v-30h103.271c29.752 0 53.957-24.205 53.957-53.957v-99.954h30v99.954c-.001 46.294-37.664 83.957-83.958 83.957z" fill="#ffb64c"/><path id="XMLID_532_" d="m375.287 423.156-12.063-104.917c-.172-20.227-6.165-43.566-16.92-65.84-11.727-24.285-28.015-45.312-47.105-60.807l-.102-.083c-28.778-23.23-28.778-71.102-28.778-113.411v-5.747l-64.977-72.351h-21.69v508.092h94.576 21.331c21.71 0 42.448-9.295 56.896-25.5 14.448-16.204 21.312-37.868 18.832-59.436z" fill="#ffb64c"/><path id="XMLID_829_" d="m227.053 0h-43.401v78.099c0 23.931 19.47 43.401 43.401 43.401s43.401-19.47 43.401-43.401v-34.698c0-23.931-19.47-43.401-43.401-43.401z" fill="#e69f34"/><path id="XMLID_98_" d="m314.559 508.092h-233.694c-24.57 0-44.56-19.989-44.56-44.56s19.989-44.56 44.56-44.56h61.808v-12.51c0-38.839 31.598-70.438 70.438-70.438h15v30h-15c-22.297 0-40.438 18.14-40.438 40.438v42.51h-91.808c-8.028 0-14.56 6.531-14.56 14.56s6.531 14.56 14.56 14.56h233.693v30z" fill="#ffb64c"/><g fill="#e69f34"><path id="XMLID_575_" d="m183.652 378.803c7.381-7.857 17.853-12.778 29.458-12.778h15v-30h-15c-10.514 0-20.489 2.332-29.458 6.48z"/><path id="XMLID_874_" d="m360.162 478.09c-1.17 1.54-2.41 3.04-3.71 4.5-14.45 16.21-35.18 25.5-56.89 25.5h-115.91v-30z"/></g></g></svg>