<svg height="512pt" viewBox="0 0 512 512" width="512pt" xmlns="http://www.w3.org/2000/svg" xmlns:xlink="http://www.w3.org/1999/xlink"><linearGradient id="a" gradientUnits="userSpaceOnUse" x1="0" x2="512" y1="256" y2="256"><stop offset="0" stop-color="#00f1ff"/><stop offset=".231" stop-color="#00d8ff"/><stop offset=".5138" stop-color="#00c0ff"/><stop offset=".7773" stop-color="#00b2ff"/><stop offset="1" stop-color="#00adff"/></linearGradient><path d="m512 256c0 141.386719-114.613281 256-256 256s-256-114.613281-256-256 114.613281-256 256-256 256 114.613281 256 256zm0 0" fill="url(#a)"/><g fill="#fff"><path d="m360.527344 302.742188h-1.484375c-4.355469 0-7.765625-3.367188-7.765625-7.664063 0-8.285156-6.714844-15-15-15s-15 6.714844-15 15c0 20.765625 16.941406 37.664063 37.765625 37.664063h1.484375c11.3125 0 21.980468-4.171876 30.042968-11.75 8.398438-7.894532 13.023438-18.582032 13.023438-30.101563v-9.1875c0-23.964844-18.210938-42.738281-41.460938-42.738281h-1.03125c-2.667968 0-9.75 0-9.75-10.785156v-4.015626c0-6.992187 5.464844-10.378906 11.242188-10.792968 3.78125.363281 7.539062 2.945312 7.539062 6.933594 0 8.285156 6.71875 15 15 15 8.285157 0 15-6.714844 15-15 0-18.601563-14.355468-34.042969-32.976562-36.601563-1.074219-.246094-2.191406-.375-3.339844-.375h-2.132812c-.902344 0-1.785156.078125-2.644532.230469-21.796874 2.144531-37.6875 18.882812-37.6875 40.605468v4.015626c0 24.011718 16.34375 40.785156 39.75 40.785156h1.03125c7.523438 0 11.460938 6.40625 11.460938 12.738281v9.1875c0 6.644531-5.738281 11.851563-13.066406 11.851563zm0 0"/><path d="m261.039062 268.964844c23.628907 0 42.140626-18.210938 42.140626-41.460938v-2.035156c0-23.234375-18.902344-42.140625-42.140626-42.140625h-1.355468c-23.234375 0-42.140625 18.90625-42.140625 42.140625v65.132812c0 23.285157 18.902343 42.226563 42.140625 42.226563 24.945312 0 35.894531-8.292969 38.65625-10.835937 6.09375-5.609376 6.484375-15.097657.875-21.191407-5.40625-5.875-14.410156-6.453125-20.515625-1.46875-.765625.464844-6.230469 3.496094-19.015625 3.496094-6.695313 0-12.140625-5.484375-12.140625-12.226563v-21.636718zm-13.496093-43.496094c0-6.691406 5.445312-12.140625 12.140625-12.140625h1.355468c6.695313 0 12.140626 5.449219 12.140626 12.140625v2.035156c0 6.535156-5.21875 11.460938-12.140626 11.460938h-13.496093zm0 0"/><path d="m147.054688 300.027344h-20.355469c-8.285157 0-15 6.714844-15 15s6.714843 15 15 15h20.355469c27.726562 0 50.28125-22.554688 50.28125-50.28125v-81.417969c0-8.28125-6.71875-15-15-15-8.285157 0-15 6.71875-15 15v34.617187c0 7.0625-5.742188 12.804688-12.804688 12.804688-7.058594 0-12.800781-5.742188-12.800781-12.804688v-34.617187c0-8.28125-6.71875-15-15-15-8.285157 0-15 6.71875-15 15v34.617187c0 23.605469 19.199219 42.804688 42.800781 42.804688 4.457031 0 8.757812-.6875 12.804688-1.957031v5.953125c0 11.183594-9.097657 20.28125-20.28125 20.28125zm0 0"/><path d="m256.683594 431c-.15625 0-.3125-.003906-.464844-.007812-5.964844-.183594-11.253906-3.878907-13.46875-9.417969-6.261719-15.527344-20.847656-38.027344-30.816406-38.027344-10.226563 0-26.046875 22.792969-33.074219 38.550781-2.882813 6.464844-9.902344 10.042969-16.824219 8.570313-6.925781-1.476563-11.882812-7.582031-11.882812-14.664063-.035156-6.40625-2.660156-32.457031-14.152344-32.457031-17.09375 0-18.097656 2.578125-24.625 19.335937-.464844 1.1875-.9375 2.402344-1.429688 3.644532-3.046874 7.703125-11.765624 11.476562-19.464843 8.425781-7.703125-3.050781-11.476563-11.765625-8.425781-19.46875.46875-1.1875.921874-2.351563 1.363281-3.488281 7.019531-18.019532 14.976562-38.445313 52.582031-38.445313 9.464844 0 25.503906 3.335938 35.597656 23.558594 12.796875-15.644531 26.339844-23.558594 40.335938-23.558594 15.988281 0 30.957031 10.214844 44.488281 30.363281.277344.421876.558594.839844.832031 1.257813.339844-.496094.683594-.996094 1.035156-1.496094 14.1875-20.273437 28.078126-30.125 42.457032-30.125 13.394531 0 26.867187 8.710938 41.101562 26.601563 9.910156-21.777344 23.796875-26.601563 34.152344-26.601563 31.238281 0 51.132812 36.363281 53.296875 40.511719 3.835937 7.34375.988281 16.40625-6.355469 20.238281-7.339844 3.835938-16.402344.992188-20.238281-6.351562-4.03125-7.617188-16.390625-24.398438-26.703125-24.398438-1.175781 0-4.976562 3.371094-8.617188 13.386719-3.671874 10.101562-4.945312 20.691406-4.957031 20.796875-.765625 6.519531-5.6875 11.800781-12.144531 13.003906-6.464844 1.203125-12.949219-1.914062-16.019531-7.722656-.050781-.101563-5.933594-11.132813-14.089844-21.867187-10.871094-14.304688-17.84375-17.578126-19.429687-17.597657-1.492188.019531-7.96875 3.222657-17.753907 17.152344-7.480469 10.648437-12.699219 21.601563-12.75 21.710937-2.484375 5.25-7.773437 8.585938-13.554687 8.585938zm0 0"/><path d="m376 158.460938c-10.355469 0-24.242188-4.824219-34.152344-26.601563-14.234375 17.894531-27.703125 26.601563-41.101562 26.601563-14.378906 0-28.269532-9.851563-42.457032-30.125-.351562-.5-.695312-1-1.035156-1.496094-.273437.417968-.554687.835937-.832031 1.253906-13.53125 20.152344-28.5 30.367188-44.488281 30.367188-13.996094 0-27.539063-7.914063-40.335938-23.558594-10.09375 20.222656-26.132812 23.558594-35.597656 23.558594-32.839844 0-40.960938-16.332032-48.121094-30.738282-1.480468-2.976562-3.007812-6.046875-4.8125-9.121094-4.195312-7.144531-1.808594-16.335937 5.335938-20.53125 7.144531-4.195312 16.335937-1.804687 20.53125 5.335938 2.335937 3.976562 4.179687 7.6875 5.804687 10.960938 5.941407 11.941406 7.011719 14.097656 21.261719 14.097656 11.691406 0 14.152344-27.121094 14.152344-32.460938 0-7.085937 4.960937-13.207031 11.894531-14.675781 6.9375-1.472656 13.949219 2.121094 16.820313 8.601563 7.019531 15.738281 22.839843 38.535156 33.066406 38.535156 10.046875 0 24.597656-22.488282 30.816406-38.03125 2.21875-5.542969 7.511719-9.242188 13.476562-9.421875 5.996094-.203125 11.472657 3.199219 14.019532 8.597656.046875.097656 5.261718 11.050781 12.742187 21.699219 9.785157 13.929687 16.261719 17.132812 17.757813 17.15625 1.601562-.023438 8.652344-3.347656 19.632812-17.875 8.121094-10.742188 13.828125-21.488282 13.886719-21.59375 3.070313-5.816406 9.574219-8.953125 16.039063-7.730469 6.460937 1.21875 11.378906 6.503906 12.125 13.035156.007812.082031 1.28125 10.671875 4.953124 20.773438 3.644532 10.019531 7.441407 13.390625 8.617188 13.390625 10.445312 0 22.710938-16.757813 26.703125-24.402344 3.832031-7.34375 12.894531-10.1875 20.238281-6.351562 7.34375 3.832031 10.191406 12.894531 6.355469 20.238281-2.164063 4.144531-22.058594 40.511719-53.296875 40.511719zm0 0"/></g></svg>